<svg xmlns="http://www.w3.org/2000/svg" xmlns:xlink="http://www.w3.org/1999/xlink" width="1920" zoomAndPan="magnify" viewBox="0 0 1440 809.999993" height="1080" preserveAspectRatio="xMidYMid meet" version="1.0"><defs><clipPath id="id1"><path d="M 425.15625 46.691406 L 793.855469 46.691406 L 793.855469 794.4375 L 425.15625 794.4375 Z M 425.15625 46.691406 " clip-rule="nonzero"/></clipPath><clipPath id="id2"><path d="M 357.273438 46.691406 L 725.527344 46.691406 L 725.527344 794.4375 L 357.273438 794.4375 Z M 357.273438 46.691406 " clip-rule="nonzero"/></clipPath><clipPath id="id3"><path d="M 344 15.210938 L 767 15.210938 L 767 521 L 344 521 Z M 344 15.210938 " clip-rule="nonzero"/></clipPath><clipPath id="id4"><path d="M 898.121094 776.101562 L 914 776.101562 L 914 794.4375 L 898.121094 794.4375 Z M 898.121094 776.101562 " clip-rule="nonzero"/></clipPath><clipPath id="id5"><path d="M 848.871094 760 L 914.539062 760 L 914.539062 794.4375 L 848.871094 794.4375 Z M 848.871094 760 " clip-rule="nonzero"/></clipPath><clipPath id="id6"><path d="M 941.601562 760 L 991.292969 760 L 991.292969 794.4375 L 941.601562 794.4375 Z M 941.601562 760 " clip-rule="nonzero"/></clipPath><clipPath id="id7"><path d="M 150.074219 767.234375 L 187.785156 767.234375 L 187.785156 794.4375 L 150.074219 794.4375 Z M 150.074219 767.234375 " clip-rule="nonzero"/></clipPath><clipPath id="id8"><path d="M 221.507812 769.453125 L 297.820312 769.453125 L 297.820312 794.4375 L 221.507812 794.4375 Z M 221.507812 769.453125 " clip-rule="nonzero"/></clipPath><clipPath id="id9"><path d="M 1051 770.339844 L 1125.730469 770.339844 L 1125.730469 794.4375 L 1051 794.4375 Z M 1051 770.339844 " clip-rule="nonzero"/></clipPath><clipPath id="id10"><path d="M 1093.785156 770.339844 L 1167.878906 770.339844 L 1167.878906 794.4375 L 1093.785156 794.4375 Z M 1093.785156 770.339844 " clip-rule="nonzero"/></clipPath><clipPath id="id11"><path d="M 1073.820312 267.066406 L 1171.976562 267.066406 L 1171.976562 612 L 1073.820312 612 Z M 1073.820312 267.066406 " clip-rule="nonzero"/></clipPath><clipPath id="id12"><path d="M 1076.480469 280 L 1171.976562 280 L 1171.976562 467.488281 L 1076.480469 467.488281 Z M 1076.480469 280 " clip-rule="nonzero"/></clipPath></defs><g clip-path="url(#id1)"><path fill="#4569a9" d="M 493.816406 794.433594 L 519.949219 794.433594 L 454.105469 73.019531 L 701.496094 73.019531 L 767.339844 794.433594 L 793.476562 794.433594 L 725.242188 46.902344 L 425.585938 46.902344 L 493.816406 794.433594 " fill-opacity="1" fill-rule="nonzero"/></g><path fill="#4569a9" d="M 487.882812 694.222656 L 766.007812 694.222656 L 762.097656 668.105469 L 490.097656 668.105469 L 487.882812 694.222656 " fill-opacity="1" fill-rule="nonzero"/><g clip-path="url(#id2)"><path fill="#86a7e0" d="M 657.203125 794.433594 L 631.066406 794.433594 L 696.910156 73.019531 L 449.519531 73.019531 L 383.675781 794.433594 L 357.539062 794.433594 L 425.769531 46.902344 L 725.425781 46.902344 L 657.203125 794.433594 " fill-opacity="1" fill-rule="nonzero"/></g><path fill="#4569a9" d="M 654.558594 537.027344 L 680.695312 537.027344 L 683.078125 510.902344 L 656.945312 510.902344 L 654.558594 537.027344 " fill-opacity="1" fill-rule="nonzero"/><path fill="#4569a9" d="M 381.035156 537.027344 L 407.171875 537.027344 L 409.554688 510.902344 L 383.417969 510.902344 L 381.035156 537.027344 " fill-opacity="1" fill-rule="nonzero"/><g clip-path="url(#id3)"><path fill="#d9ecf6" d="M 703.902344 520.675781 L 360.816406 520.675781 C 351.152344 520.675781 344.035156 512.84375 344.914062 503.191406 L 387.859375 32.695312 C 388.738281 23.039062 397.289062 15.207031 406.949219 15.207031 L 750.03125 15.207031 C 759.699219 15.207031 766.8125 23.039062 765.933594 32.695312 L 722.992188 503.191406 C 722.109375 512.84375 713.558594 520.675781 703.902344 520.675781 " fill-opacity="1" fill-rule="nonzero"/></g><path fill="#86a7e0" d="M 551.675781 345.878906 L 521.375 345.878906 C 514.488281 345.878906 508.242188 343.203125 503.789062 338.320312 C 499.339844 333.441406 497.238281 327.003906 497.871094 320.171875 L 505.488281 237.476562 C 505.683594 235.378906 507.445312 233.773438 509.554688 233.773438 L 534.3125 233.773438 C 536.566406 233.773438 538.394531 235.589844 538.394531 237.847656 C 538.394531 240.109375 536.566406 241.925781 534.3125 241.925781 L 513.28125 241.925781 L 506.003906 320.917969 C 505.585938 325.4375 506.945312 329.65625 509.824219 332.816406 C 512.710938 335.980469 516.8125 337.726562 521.375 337.726562 L 551.675781 337.726562 C 561.433594 337.726562 570.085938 329.851562 570.972656 320.171875 L 578.183594 241.925781 L 557.90625 241.925781 C 555.652344 241.925781 553.820312 240.109375 553.820312 237.847656 C 553.820312 235.589844 555.652344 233.773438 557.90625 233.773438 L 582.664062 233.773438 C 583.816406 233.773438 584.90625 234.242188 585.679688 235.101562 C 586.457031 235.949219 586.839844 237.085938 586.726562 238.21875 L 579.105469 320.917969 C 577.847656 334.6875 565.539062 345.878906 551.675781 345.878906 " fill-opacity="1" fill-rule="nonzero"/><path fill="#86a7e0" d="M 584.066406 226.726562 L 559.308594 226.726562 C 557.054688 226.726562 555.222656 224.910156 555.222656 222.648438 C 555.222656 220.386719 557.054688 218.570312 559.308594 218.570312 L 580.339844 218.570312 L 583.820312 180.738281 L 518.921875 180.738281 L 515.4375 218.570312 L 535.710938 218.570312 C 537.96875 218.570312 539.800781 220.386719 539.800781 222.648438 C 539.800781 224.910156 537.96875 226.726562 535.710938 226.726562 L 510.957031 226.726562 C 509.804688 226.726562 508.714844 226.25 507.9375 225.394531 C 507.160156 224.550781 506.777344 223.410156 506.890625 222.273438 L 511.128906 176.289062 C 511.324219 174.179688 513.085938 172.585938 515.195312 172.585938 L 588.304688 172.585938 C 589.457031 172.585938 590.546875 173.054688 591.328125 173.917969 C 592.09375 174.761719 592.480469 175.898438 592.371094 177.039062 L 588.128906 223.023438 C 587.933594 225.132812 586.171875 226.726562 584.066406 226.726562 " fill-opacity="1" fill-rule="nonzero"/><path fill="#86a7e0" d="M 531.925781 308.257812 L 538.660156 315.796875 L 547.363281 307.714844 L 556.949219 203.730469 L 541.5625 203.730469 Z M 538.390625 325.699219 C 538.328125 325.699219 538.265625 325.699219 538.203125 325.699219 C 537.097656 325.648438 536.074219 325.160156 535.34375 324.34375 L 524.644531 312.363281 C 523.886719 311.515625 523.519531 310.394531 523.625 309.269531 L 533.769531 199.28125 C 533.964844 197.171875 535.726562 195.578125 537.835938 195.578125 L 561.433594 195.578125 C 562.582031 195.578125 563.671875 196.050781 564.449219 196.910156 C 565.226562 197.753906 565.609375 198.894531 565.5 200.027344 L 555.355469 310.015625 C 555.261719 311.015625 554.804688 311.945312 554.070312 312.636719 L 541.171875 324.625 C 540.414062 325.3125 539.417969 325.699219 538.390625 325.699219 " fill-opacity="1" fill-rule="nonzero"/><path fill="#86a7e0" d="M 561.441406 203.730469 C 561.316406 203.730469 561.179688 203.730469 561.054688 203.71875 C 558.808594 203.507812 557.15625 201.527344 557.363281 199.28125 L 563.179688 136.183594 C 563.375 134.070312 565.136719 132.480469 567.246094 132.480469 L 677.960938 132.480469 C 680.21875 132.480469 682.039062 134.292969 682.039062 136.554688 C 682.039062 138.816406 680.21875 140.632812 677.960938 140.632812 L 570.972656 140.632812 L 565.5 200.027344 C 565.304688 202.152344 563.527344 203.730469 561.441406 203.730469 " fill-opacity="1" fill-rule="nonzero"/><path fill="#86a7e0" d="M 661.722656 163.390625 L 565.148438 163.390625 C 562.898438 163.390625 561.0625 161.570312 561.0625 159.3125 C 561.0625 157.054688 562.898438 155.234375 565.148438 155.234375 L 661.722656 155.234375 C 663.984375 155.234375 665.804688 157.054688 665.804688 159.3125 C 665.804688 161.570312 663.984375 163.390625 661.722656 163.390625 " fill-opacity="1" fill-rule="nonzero"/><path fill="#86a7e0" d="M 532.886719 385.347656 L 463.71875 385.347656 C 462.566406 385.347656 461.480469 384.875 460.703125 384.015625 C 459.925781 383.171875 459.542969 382.035156 459.65625 380.898438 L 464.734375 325.699219 L 429.652344 325.699219 L 428.460938 338.671875 C 428.257812 340.914062 426.316406 342.605469 424.019531 342.359375 C 421.773438 342.148438 420.121094 340.167969 420.328125 337.921875 L 421.863281 321.253906 C 422.050781 319.15625 423.820312 317.546875 425.929688 317.546875 L 469.214844 317.546875 C 470.367188 317.546875 471.457031 318.019531 472.234375 318.882812 C 473.011719 319.726562 473.394531 320.863281 473.28125 321.996094 L 468.203125 377.195312 L 529.160156 377.195312 L 534.324219 321.253906 C 534.527344 318.992188 536.449219 317.269531 538.765625 317.5625 C 541.011719 317.765625 542.664062 319.753906 542.453125 321.996094 L 536.953125 381.644531 C 536.761719 383.753906 534.996094 385.347656 532.886719 385.347656 " fill-opacity="1" fill-rule="nonzero"/><path fill="#86a7e0" d="M 594.074219 456.421875 L 509.867188 456.421875 C 507.613281 456.421875 505.78125 454.605469 505.78125 452.347656 C 505.78125 450.085938 507.613281 448.269531 509.867188 448.269531 L 590.351562 448.269531 L 612.890625 203.730469 L 586.183594 203.730469 C 583.921875 203.730469 582.09375 201.917969 582.09375 199.65625 C 582.09375 197.394531 583.921875 195.578125 586.183594 195.578125 L 617.375 195.578125 C 618.527344 195.578125 619.621094 196.050781 620.398438 196.910156 C 621.160156 197.753906 621.550781 198.894531 621.441406 200.027344 L 598.144531 452.71875 C 597.949219 454.828125 596.1875 456.421875 594.074219 456.421875 " fill-opacity="1" fill-rule="nonzero"/><path fill="#86a7e0" d="M 469.707031 456.421875 L 413.882812 456.421875 C 412.730469 456.421875 411.640625 455.949219 410.863281 455.089844 C 410.085938 454.246094 409.707031 453.109375 409.820312 451.96875 L 415.394531 391.421875 C 415.605469 389.175781 417.546875 387.457031 419.835938 387.734375 C 422.082031 387.941406 423.734375 389.925781 423.527344 392.171875 L 418.363281 448.269531 L 469.707031 448.269531 C 471.964844 448.269531 473.792969 450.085938 473.792969 452.347656 C 473.792969 454.605469 471.964844 456.421875 469.707031 456.421875 " fill-opacity="1" fill-rule="nonzero"/><path fill="#86a7e0" d="M 450.007812 342.371094 L 398.777344 342.371094 C 396.523438 342.371094 394.691406 340.554688 394.691406 338.292969 C 394.691406 336.03125 396.523438 334.21875 398.777344 334.21875 L 450.007812 334.21875 C 452.265625 334.21875 454.097656 336.03125 454.097656 338.292969 C 454.097656 340.554688 452.265625 342.371094 450.007812 342.371094 " fill-opacity="1" fill-rule="nonzero"/><path fill="#86a7e0" d="M 445.078125 395.875 L 393.847656 395.875 C 391.589844 395.875 389.757812 394.058594 389.757812 391.796875 C 389.757812 389.539062 391.589844 387.722656 393.847656 387.722656 L 445.078125 387.722656 C 447.332031 387.722656 449.164062 389.539062 449.164062 391.796875 C 449.164062 394.058594 447.332031 395.875 445.078125 395.875 " fill-opacity="1" fill-rule="nonzero"/><path fill="#86a7e0" d="M 446.054688 385.347656 C 445.929688 385.347656 445.796875 385.347656 445.671875 385.335938 C 443.425781 385.128906 441.773438 383.144531 441.980469 380.898438 L 444.730469 351.066406 C 444.9375 348.820312 446.976562 347.15625 449.171875 347.378906 C 451.417969 347.585938 453.070312 349.570312 452.863281 351.816406 L 450.113281 381.644531 C 449.921875 383.769531 448.144531 385.347656 446.054688 385.347656 " fill-opacity="1" fill-rule="nonzero"/><path fill="#86a7e0" d="M 428.980469 385.347656 C 428.855469 385.347656 428.722656 385.347656 428.597656 385.335938 C 426.351562 385.128906 424.699219 383.144531 424.910156 380.898438 L 427.65625 351.066406 C 427.863281 348.820312 429.882812 347.15625 432.097656 347.378906 C 434.34375 347.585938 435.996094 349.570312 435.789062 351.816406 L 433.039062 381.644531 C 432.84375 383.769531 431.070312 385.347656 428.980469 385.347656 " fill-opacity="1" fill-rule="nonzero"/><path fill="#86a7e0" d="M 411.898438 385.347656 C 411.773438 385.347656 411.640625 385.347656 411.515625 385.335938 C 409.269531 385.128906 407.617188 383.144531 407.824219 380.898438 L 410.574219 351.066406 C 410.78125 348.820312 412.792969 347.15625 415.015625 347.378906 C 417.261719 347.585938 418.914062 349.570312 418.707031 351.816406 L 415.957031 381.644531 C 415.761719 383.769531 413.988281 385.347656 411.898438 385.347656 " fill-opacity="1" fill-rule="nonzero"/><path fill="#86a7e0" d="M 394.824219 385.347656 C 394.699219 385.347656 394.566406 385.347656 394.441406 385.335938 C 392.195312 385.128906 390.542969 383.144531 390.75 380.898438 L 393.5 351.066406 C 393.707031 348.820312 395.695312 347.15625 397.941406 347.378906 C 400.1875 347.585938 401.839844 349.570312 401.632812 351.816406 L 398.882812 381.644531 C 398.6875 383.769531 396.910156 385.347656 394.824219 385.347656 " fill-opacity="1" fill-rule="nonzero"/><path fill="#86a7e0" d="M 491.625 436.480469 C 482.613281 436.480469 474.605469 443.773438 473.773438 452.71875 C 473.394531 456.878906 474.640625 460.761719 477.289062 463.664062 C 479.957031 466.585938 483.738281 468.195312 487.949219 468.195312 C 496.960938 468.195312 504.96875 460.914062 505.792969 451.96875 C 506.175781 447.808594 504.925781 443.914062 502.277344 441 C 499.617188 438.089844 495.835938 436.480469 491.625 436.480469 Z M 487.949219 476.347656 C 481.414062 476.347656 475.488281 473.800781 471.257812 469.167969 C 467.039062 464.550781 465.042969 458.445312 465.640625 451.96875 C 466.851562 438.933594 478.503906 428.324219 491.625 428.324219 C 498.164062 428.324219 504.085938 430.878906 508.320312 435.511719 C 512.539062 440.128906 514.527344 446.242188 513.925781 452.71875 C 512.726562 465.753906 501.078125 476.347656 487.949219 476.347656 " fill-opacity="1" fill-rule="nonzero"/><path fill="#86a7e0" d="M 475.78125 92.121094 C 460.257812 92.121094 446.472656 104.675781 445.042969 120.09375 C 444.378906 127.375 446.578125 134.210938 451.253906 139.332031 C 455.933594 144.472656 462.578125 147.300781 469.945312 147.300781 C 485.472656 147.300781 499.257812 134.753906 500.679688 119.347656 C 501.355469 112.050781 499.148438 105.214844 494.476562 100.097656 C 489.789062 94.949219 483.148438 92.121094 475.78125 92.121094 Z M 469.945312 155.457031 C 460.25 155.457031 451.46875 151.683594 445.214844 144.832031 C 438.972656 138 436.023438 128.941406 436.910156 119.347656 C 438.707031 99.832031 456.152344 83.964844 475.78125 83.964844 C 485.476562 83.964844 494.261719 87.738281 500.515625 94.589844 C 506.757812 101.429688 509.699219 110.480469 508.8125 120.09375 C 507.023438 139.59375 489.582031 155.457031 469.945312 155.457031 " fill-opacity="1" fill-rule="nonzero"/><path fill="#86a7e0" d="M 472.863281 123.796875 C 471.753906 123.796875 470.652344 123.355469 469.847656 122.46875 C 468.328125 120.800781 468.445312 118.21875 470.117188 116.695312 L 516.878906 74.136719 C 517.632812 73.457031 518.609375 73.082031 519.628906 73.082031 L 563.796875 73.082031 C 566.054688 73.082031 567.886719 74.898438 567.886719 77.160156 C 567.886719 79.421875 566.054688 81.234375 563.796875 81.234375 L 521.210938 81.234375 L 475.613281 122.742188 C 474.835938 123.453125 473.851562 123.796875 472.863281 123.796875 " fill-opacity="1" fill-rule="nonzero"/><path fill="#86a7e0" d="M 688.300781 293.902344 L 630.929688 293.902344 C 628.667969 293.902344 626.855469 292.085938 626.855469 289.824219 C 626.855469 287.566406 628.667969 285.75 630.929688 285.75 L 688.300781 285.75 C 690.5625 285.75 692.378906 287.566406 692.378906 289.824219 C 692.378906 292.085938 690.5625 293.902344 688.300781 293.902344 " fill-opacity="1" fill-rule="nonzero"/><path fill="#86a7e0" d="M 707.089844 316.714844 L 667.957031 316.714844 C 665.695312 316.714844 663.875 314.898438 663.875 312.636719 C 663.875 310.375 665.695312 308.5625 667.957031 308.5625 L 707.089844 308.5625 C 709.347656 308.5625 711.167969 310.375 711.167969 312.636719 C 711.167969 314.898438 709.347656 316.714844 707.089844 316.714844 " fill-opacity="1" fill-rule="nonzero"/><path fill="#86a7e0" d="M 649 316.714844 L 628.824219 316.714844 C 626.5625 316.714844 624.742188 314.898438 624.742188 312.636719 C 624.742188 310.375 626.5625 308.5625 628.824219 308.5625 L 649 308.5625 C 651.261719 308.5625 653.082031 310.375 653.082031 312.636719 C 653.082031 314.898438 651.261719 316.714844 649 316.714844 " fill-opacity="1" fill-rule="nonzero"/><path fill="#86a7e0" d="M 684.09375 339.527344 L 626.730469 339.527344 C 624.464844 339.527344 622.648438 337.710938 622.648438 335.449219 C 622.648438 333.191406 624.464844 331.375 626.730469 331.375 L 684.09375 331.375 C 686.355469 331.375 688.171875 333.191406 688.171875 335.449219 C 688.171875 337.710938 686.355469 339.527344 684.09375 339.527344 " fill-opacity="1" fill-rule="nonzero"/><path fill="#86a7e0" d="M 663.75 362.328125 L 624.617188 362.328125 C 622.355469 362.328125 620.542969 360.511719 620.542969 358.25 C 620.542969 355.992188 622.355469 354.171875 624.617188 354.171875 L 663.75 354.171875 C 666.011719 354.171875 667.832031 355.992188 667.832031 358.25 C 667.832031 360.511719 666.011719 362.328125 663.75 362.328125 " fill-opacity="1" fill-rule="nonzero"/><path fill="#86a7e0" d="M 700.769531 385.140625 L 622.523438 385.140625 C 620.261719 385.140625 618.441406 383.324219 618.441406 381.0625 C 618.441406 378.800781 620.261719 376.988281 622.523438 376.988281 L 700.769531 376.988281 C 703.035156 376.988281 704.851562 378.800781 704.851562 381.0625 C 704.851562 383.324219 703.035156 385.140625 700.769531 385.140625 " fill-opacity="1" fill-rule="nonzero"/><path fill="#86a7e0" d="M 685.214844 407.953125 L 673.367188 407.953125 C 671.105469 407.953125 669.289062 406.136719 669.289062 403.875 C 669.289062 401.617188 671.105469 399.796875 673.367188 399.796875 L 685.214844 399.796875 C 687.476562 399.796875 689.296875 401.617188 689.296875 403.875 C 689.296875 406.136719 687.476562 407.953125 685.214844 407.953125 " fill-opacity="1" fill-rule="nonzero"/><path fill="#86a7e0" d="M 654.214844 407.953125 L 620.410156 407.953125 C 618.152344 407.953125 616.335938 406.136719 616.335938 403.875 C 616.335938 401.617188 618.152344 399.796875 620.410156 399.796875 L 654.214844 399.796875 C 656.480469 399.796875 658.296875 401.617188 658.296875 403.875 C 658.296875 406.136719 656.480469 407.953125 654.214844 407.953125 " fill-opacity="1" fill-rule="nonzero"/><path fill="#86a7e0" d="M 712.523438 105.964844 L 653.855469 105.964844 C 651.59375 105.964844 649.777344 104.144531 649.777344 101.882812 C 649.777344 99.625 651.59375 97.808594 653.855469 97.808594 L 712.523438 97.808594 C 714.789062 97.808594 716.605469 99.625 716.605469 101.882812 C 716.605469 104.144531 714.789062 105.964844 712.523438 105.964844 " fill-opacity="1" fill-rule="nonzero"/><path fill="#86a7e0" d="M 693.042969 120.941406 L 681.191406 120.941406 C 678.933594 120.941406 677.113281 119.125 677.113281 116.863281 C 677.113281 114.601562 678.933594 112.785156 681.191406 112.785156 L 693.042969 112.785156 C 695.304688 112.785156 697.125 114.601562 697.125 116.863281 C 697.125 119.125 695.304688 120.941406 693.042969 120.941406 " fill-opacity="1" fill-rule="nonzero"/><path fill="#86a7e0" d="M 665.96875 120.941406 L 651.75 120.941406 C 649.484375 120.941406 647.667969 119.125 647.667969 116.863281 C 647.667969 114.601562 649.484375 112.785156 651.75 112.785156 L 665.25 112.785156 C 667.511719 112.785156 669.691406 114.601562 669.691406 116.863281 C 669.691406 119.125 668.230469 120.941406 665.96875 120.941406 " fill-opacity="1" fill-rule="nonzero"/><path fill="#86a7e0" d="M 705.351562 181.625 L 646.667969 181.625 C 644.40625 181.625 642.589844 179.808594 642.589844 177.546875 C 642.589844 175.289062 644.40625 173.472656 646.667969 173.472656 L 705.351562 173.472656 C 707.613281 173.472656 709.433594 175.289062 709.433594 177.546875 C 709.433594 179.808594 707.613281 181.625 705.351562 181.625 " fill-opacity="1" fill-rule="nonzero"/><path fill="#86a7e0" d="M 685.867188 196.605469 L 674.015625 196.605469 C 671.757812 196.605469 669.941406 194.785156 669.941406 192.527344 C 669.941406 190.265625 671.757812 188.449219 674.015625 188.449219 L 685.867188 188.449219 C 688.132812 188.449219 689.949219 190.265625 689.949219 192.527344 C 689.949219 194.785156 688.132812 196.605469 685.867188 196.605469 " fill-opacity="1" fill-rule="nonzero"/><path fill="#86a7e0" d="M 658.78125 196.605469 L 644.574219 196.605469 C 642.3125 196.605469 640.492188 194.785156 640.492188 192.527344 C 640.492188 190.265625 642.3125 188.449219 644.574219 188.449219 L 658.0625 188.449219 C 660.320312 188.449219 662.5 190.265625 662.5 192.527344 C 662.5 194.785156 661.042969 196.605469 658.78125 196.605469 " fill-opacity="1" fill-rule="nonzero"/><path fill="#86a7e0" d="M 577.855469 64.191406 L 542.746094 64.191406 C 540.492188 64.191406 538.660156 62.375 538.660156 60.117188 C 538.660156 57.855469 540.492188 56.039062 542.746094 56.039062 L 577.855469 56.039062 C 580.109375 56.039062 581.9375 57.855469 581.9375 60.117188 C 581.9375 62.375 580.109375 64.191406 577.855469 64.191406 " fill-opacity="1" fill-rule="nonzero"/><path fill="#a9adc2" d="M 899.425781 382.339844 L 934.617188 293.339844 L 914.976562 284.503906 C 904.445312 279.765625 891.835938 285.382812 887.980469 296.53125 L 867.296875 357.164062 L 812.480469 344.671875 L 805.40625 362.929688 L 871.171875 393.589844 C 882.078125 398.667969 895.003906 393.519531 899.425781 382.339844 " fill-opacity="1" fill-rule="nonzero"/><path fill="#4569a9" d="M 889.375 544.03125 C 889.160156 554.757812 880.402344 563.335938 869.671875 563.335938 C 874.421875 359.089844 869.296875 362.363281 886.332031 301.347656 C 890.445312 286.625 901.695312 274.929688 916.285156 270.316406 L 921.324219 268.726562 L 889.375 544.03125 " fill-opacity="1" fill-rule="nonzero"/><path fill="#f89a82" d="M 906.03125 771.027344 C 903.214844 783.089844 886.761719 779.03125 886.707031 766.96875 L 887.171875 619.738281 L 883.148438 526.410156 L 924.578125 528.019531 L 922.070312 581.304688 C 921.65625 590.085938 921.941406 598.898438 922.9375 607.628906 C 928.5625 656.84375 920.191406 703.398438 906.03125 771.027344 " fill-opacity="1" fill-rule="nonzero"/><path fill="#f89a82" d="M 986.042969 771.929688 C 981.160156 782.238281 975.390625 774.117188 966.515625 767.160156 L 957.109375 622.53125 C 956.460938 613.117188 955.105469 603.722656 953.121094 594.492188 C 948.769531 574.230469 947.015625 555.894531 947.007812 538.863281 L 991.722656 529.628906 L 990.148438 576.832031 C 989.667969 591.277344 990.984375 605.730469 993.980469 619.871094 C 1004.582031 669.9375 992.933594 714.804688 986.042969 771.929688 " fill-opacity="1" fill-rule="nonzero"/><path fill="#334668" d="M 877.429688 630.085938 L 862.609375 630.085938 L 880.582031 421.363281 L 935.871094 421.363281 C 952.75 421.363281 969.425781 417.902344 984.921875 411.285156 C 986.503906 419.054688 988.703125 426.726562 991.605469 434.1875 C 998.046875 450.75 1000.890625 468.496094 999.957031 486.25 L 996.238281 552.292969 C 994.699219 579.671875 992.289062 604.152344 995.9375 630.085938 L 877.429688 630.085938 " fill-opacity="1" fill-rule="nonzero"/><path fill="#86a7e0" d="M 967.589844 421.789062 C 964.710938 430.066406 957.15625 436.035156 948.480469 436.671875 C 943.28125 437.050781 938.265625 437.21875 933.679688 437.21875 L 878.378906 437.21875 L 885.289062 379.089844 C 886.878906 367.695312 884.011719 356.609375 879.230469 346.355469 C 876.363281 340.210938 876.164062 332.578125 878.933594 323.269531 L 893.980469 279.128906 C 896.980469 273.324219 902.367188 268.871094 908.914062 267.15625 L 914.960938 265.65625 C 918.839844 264.691406 922.550781 263.128906 925.964844 261.015625 L 931.289062 257.726562 C 938.449219 253.300781 947.484375 253.777344 953.828125 258.914062 L 961.023438 264.742188 C 964.179688 267.300781 967.617188 269.507812 971.261719 271.324219 L 990.222656 281.28125 C 1000.324219 286.316406 1001.261719 294.917969 998.742188 306.136719 L 985.972656 363.121094 C 982.375 379.148438 986.257812 412.464844 988.957031 428.308594 C 988.929688 428.320312 988.90625 428.332031 988.875 428.34375 C 983.972656 430.402344 978.390625 428.796875 975.292969 424.648438 L 969.351562 416.710938 L 967.589844 421.789062 " fill-opacity="1" fill-rule="nonzero"/><path fill="#d9ecf6" d="M 969.636719 563.90625 L 1000.125 567.800781 C 1014.34375 463.382812 980.167969 435.765625 1000.242188 296.675781 C 1001.089844 290.746094 998.0625 284.914062 992.722656 282.207031 L 960.546875 264.46875 L 937.652344 336.84375 C 930.726562 357.597656 933.542969 369.929688 933.542969 392.796875 L 933.542969 522.921875 C 933.542969 543.710938 949 561.265625 969.636719 563.90625 " fill-opacity="1" fill-rule="nonzero"/><path fill="#d9ecf6" d="M 864.699219 559.433594 C 869.625 348.070312 863.957031 358.941406 883.226562 290.824219 C 886.226562 280.199219 894.390625 271.765625 904.917969 268.4375 L 916.347656 264.820312 L 888.429688 325.265625 C 879.320312 346.242188 879.078125 349.097656 879.078125 371.964844 L 884.398438 540.128906 C 884.191406 550.855469 875.429688 559.433594 864.699219 559.433594 " fill-opacity="1" fill-rule="nonzero"/><path fill="#a9adc2" d="M 998.644531 287.980469 C 994.382812 285.859375 989.34375 285.738281 984.855469 287.820312 L 979.746094 290.195312 C 962.871094 298.046875 951.304688 314.324219 949.5625 332.671875 L 946.496094 364.871094 L 933.390625 382.476562 C 933.144531 386.128906 933.539062 389.125 933.539062 392.796875 L 933.539062 439.542969 C 958.085938 420.539062 976.347656 403.367188 990.515625 385.894531 L 991.75 384.371094 L 993.78125 373.828125 C 994.0625 352.121094 995.855469 327.058594 1000.234375 296.675781 C 1000.679688 293.609375 1000.0625 290.574219 998.644531 287.980469 " fill-opacity="1" fill-rule="nonzero"/><path fill="#d9ecf6" d="M 911.589844 425.195312 L 954.105469 367.78125 L 957.375 333.414062 C 958.863281 317.816406 968.703125 303.984375 983.0625 297.308594 L 988.167969 294.933594 C 994.152344 292.152344 1000.59375 297.109375 999.359375 303.542969 L 984.417969 380.953125 C 967.789062 401.472656 946.261719 420.171875 923.320312 437.523438 L 911.589844 425.195312 " fill-opacity="1" fill-rule="nonzero"/><path fill="#94d9d4" d="M 876.949219 419.871094 L 940.621094 468.304688 C 944.304688 471.101562 945.558594 476.078125 943.640625 480.285156 L 922.664062 526.421875 C 921.199219 529.636719 917.121094 530.660156 914.304688 528.523438 L 849.171875 478.976562 C 846.4375 476.894531 845.5 473.199219 846.925781 470.074219 L 868.828125 421.914062 C 870.253906 418.789062 874.21875 417.792969 876.949219 419.871094 " fill-opacity="1" fill-rule="nonzero"/><path fill="#f89a82" d="M 911.585938 425.195312 C 903.773438 427.605469 891.894531 434.960938 888.707031 440.515625 C 885.824219 445.527344 887.117188 452.621094 889.523438 457.171875 C 891.367188 460.667969 896.160156 468.175781 901.242188 467.179688 C 906.632812 466.121094 911 457.445312 913.140625 453.621094 C 916.410156 447.792969 918.363281 442.527344 923.320312 437.523438 L 911.585938 425.195312 " fill-opacity="1" fill-rule="nonzero"/><path fill="#223554" d="M 965.6875 247.414062 C 984.015625 243.996094 993 223.847656 982.765625 209.65625 C 981.164062 207.441406 979.414062 205.199219 977.558594 202.867188 C 973.863281 198.210938 973.960938 192.753906 972.722656 187.015625 C 965.53125 153.648438 901.730469 160.777344 899.542969 194.042969 C 898.375 211.828125 892.03125 216.234375 887.90625 224.867188 C 883.476562 234.125 889.859375 244.40625 900.449219 245.347656 C 921.78125 247.246094 946.15625 251.054688 965.6875 247.414062 " fill-opacity="1" fill-rule="nonzero"/><path fill="#f89a82" d="M 956.613281 272.957031 C 959.480469 269.601562 960.246094 265.015625 958.683594 261.050781 C 958.054688 259.464844 957.160156 256.847656 956.894531 255.15625 L 952.722656 228.65625 L 921.742188 228.65625 L 925.695312 253.75 C 926.183594 256.832031 925.101562 259.867188 923.019531 262.003906 C 920.179688 264.914062 918.421875 268.679688 918.375 272.675781 L 920.125 278.292969 C 921.765625 283.550781 927.652344 286.179688 932.667969 283.890625 L 956.613281 272.957031 " fill-opacity="1" fill-rule="nonzero"/><path fill="#f89a82" d="M 961.488281 219.628906 L 959.945312 231.738281 C 958.476562 243.285156 948.46875 252.097656 936.859375 252.066406 C 921.386719 252.023438 908.410156 240.898438 906.402344 225.640625 C 905.402344 217.996094 905.117188 210.046875 905.542969 201.796875 C 906.222656 188.796875 917.101562 178.304688 930.117188 178.058594 L 936.121094 177.945312 L 953.09375 194.800781 C 959.578125 201.242188 962.671875 210.382812 961.488281 219.628906 " fill-opacity="1" fill-rule="nonzero"/><path fill="#f89a82" d="M 957.609375 227.660156 C 964.53125 227.429688 970.21875 221.800781 970.515625 214.890625 C 970.726562 210.003906 966.425781 206.285156 961.582031 207.179688 C 957.789062 207.878906 955.015625 211.277344 955.117188 215.105469 L 955.390625 225.578125 C 955.421875 226.777344 956.402344 227.695312 957.609375 227.660156 " fill-opacity="1" fill-rule="nonzero"/><path fill="#f89a82" d="M 805.410156 362.929688 C 797.777344 365.503906 788.355469 365.367188 782.796875 362.558594 C 777.78125 360.023438 775.039062 353.273438 774.554688 348.015625 C 774.1875 343.972656 774.058594 334.816406 778.71875 332.65625 C 783.652344 330.375 791.835938 335.121094 795.617188 337.085938 C 801.382812 340.078125 805.785156 343.371094 812.480469 344.671875 L 805.410156 362.929688 " fill-opacity="1" fill-rule="nonzero"/><path fill="#f89a82" d="M 864.886719 776.546875 C 869.199219 773.714844 873.253906 770.363281 876.734375 766.339844 C 891.765625 748.921875 886.574219 734.652344 888.367188 729.1875 L 911.195312 726.609375 L 909.910156 739.304688 C 908.898438 749.25 911.523438 756.011719 912.492188 760.09375 C 896.964844 775.515625 881.15625 782.984375 864.886719 776.546875 " fill-opacity="1" fill-rule="nonzero"/><g clip-path="url(#id4)"><path fill="#223554" d="M 900.230469 794.433594 L 910.117188 794.433594 L 913.882812 777.964844 C 910.371094 775.210938 901.746094 776.640625 898.324219 778.898438 L 900.230469 794.433594 " fill-opacity="1" fill-rule="nonzero"/></g><g clip-path="url(#id5)"><path fill="#223554" d="M 913.289062 779.234375 C 915.605469 776.390625 913.433594 764.339844 912.566406 760.378906 C 912.554688 760.296875 912.519531 760.179688 912.492188 760.09375 C 893.902344 768.058594 889.109375 777.742188 869.308594 777.742188 C 867.90625 777.742188 866.21875 777.304688 864.886719 776.546875 C 863.683594 777.335938 862.46875 778.105469 861.230469 778.808594 C 850.222656 785.113281 848.679688 789.691406 848.972656 794.433594 L 877.0625 794.433594 C 887.261719 794.433594 882.371094 787.367188 913.289062 779.234375 " fill-opacity="1" fill-rule="nonzero"/></g><path fill="#f89a82" d="M 951.816406 776.546875 C 954.523438 773.714844 957.066406 770.363281 959.242188 766.339844 C 968.65625 748.921875 965.398438 734.652344 966.53125 729.1875 L 989.242188 726.609375 L 988.433594 739.304688 C 987.800781 749.25 989.453125 756.011719 990.058594 760.09375 C 981.367188 773.863281 972.539062 781.265625 963.488281 778.113281 C 959.640625 779.425781 955.753906 779.03125 951.816406 776.546875 " fill-opacity="1" fill-rule="nonzero"/><g clip-path="url(#id6)"><path fill="#223554" d="M 949.535156 778.808594 C 950.3125 778.105469 951.800781 776.550781 952.554688 775.761719 C 955.222656 778.175781 964.355469 776.839844 967.515625 775.535156 C 977.421875 771.441406 986.554688 762.492188 990.0625 760.09375 C 990.425781 762.652344 991.257812 769.648438 991.199219 774.578125 C 991.171875 777.117188 990.476562 777.667969 988.726562 781.472656 C 986.984375 785.273438 986.648438 785.777344 984.617188 794.433594 L 978.421875 794.433594 L 978.464844 786.007812 C 972.207031 790.921875 972.363281 794.433594 967.863281 794.433594 L 941.851562 794.433594 C 941.667969 789.691406 942.640625 785.113281 949.535156 778.808594 " fill-opacity="1" fill-rule="nonzero"/></g><path fill="#2f9b96" d="M 150.660156 770.546875 C 150.871094 765.953125 151.101562 759.488281 150.539062 750.746094 C 150.035156 742.90625 155.394531 735.894531 163.09375 734.316406 C 168.667969 733.175781 173.957031 737.230469 174.285156 742.90625 C 174.75 750.894531 175.691406 761.519531 178.707031 770.945312 C 178.777344 771.171875 178.855469 771.351562 178.925781 771.5625 C 163.996094 788.695312 154.320312 789.171875 150.660156 770.546875 " fill-opacity="1" fill-rule="nonzero"/><g clip-path="url(#id7)"><path fill="#a9adc2" d="M 150.660156 770.546875 C 151.972656 773.609375 153.40625 778.15625 156.695312 776.160156 C 159.617188 774.390625 158.921875 768.421875 165.71875 767.671875 C 170.957031 767.097656 175.1875 768.796875 178.925781 771.5625 C 180.308594 775.675781 181.90625 778.574219 183.582031 780.554688 C 187 784.59375 187.546875 789.1875 187.546875 794.4375 L 150.652344 794.4375 C 150.054688 792.433594 150.15625 782.5625 150.519531 773.6875 C 150.558594 772.769531 150.609375 771.699219 150.660156 770.546875 " fill-opacity="1" fill-rule="nonzero"/></g><path fill="#2f9b96" d="M 222.804688 772.929688 C 223.683594 768.066406 226.429688 758.261719 226.265625 747.539062 L 226.050781 733.464844 L 251.796875 734.296875 C 253.265625 740.109375 246.0625 755.085938 262.824219 769.859375 C 251.035156 781.660156 238.601562 788.953125 222.804688 772.929688 " fill-opacity="1" fill-rule="nonzero"/><g clip-path="url(#id8)"><path fill="#a9adc2" d="M 222.804688 772.929688 C 229.804688 776.386719 238.699219 778.746094 246.359375 777.667969 C 253.867188 776.613281 254.765625 771.386719 262.824219 769.859375 C 263.234375 770.222656 263.59375 770.585938 264.035156 770.945312 C 269.46875 775.414062 275.902344 778.472656 282.625 780.554688 C 295.648438 784.59375 297.738281 789.1875 297.738281 794.4375 L 223.171875 794.4375 C 220.890625 792.433594 221.28125 782.5625 222.660156 773.6875 C 222.695312 773.46875 222.757812 773.171875 222.804688 772.929688 " fill-opacity="1" fill-rule="nonzero"/></g><path fill="#223554" d="M 148.808594 451.058594 L 148.808594 466.335938 C 148.808594 485.566406 156.722656 498.160156 177.398438 507.105469 C 196.046875 515.171875 208.945312 532.566406 210.058594 552.835938 L 221.507812 761.824219 L 268.921875 760.757812 L 263.566406 474.859375 C 263.640625 469.472656 262.84375 460.601562 260.835938 451.058594 L 148.808594 451.058594 " fill-opacity="1" fill-rule="nonzero"/><path fill="#223554" d="M 148.808594 451.292969 L 260.835938 451.292969 L 260.835938 437.273438 L 148.808594 437.273438 L 148.808594 451.292969 " fill-opacity="1" fill-rule="nonzero"/><path fill="#b45a41" d="M 208.640625 451.292969 L 228.574219 451.292969 L 228.574219 437.273438 L 208.640625 437.273438 L 208.640625 451.292969 " fill-opacity="1" fill-rule="nonzero"/><path fill="#334668" d="M 189.519531 761.824219 L 147.546875 761.824219 L 148.808594 466.335938 L 173.03125 470.214844 C 193.109375 473.429688 207.433594 491.398438 206.089844 511.675781 L 189.519531 761.824219 " fill-opacity="1" fill-rule="nonzero"/><path fill="#94d9d4" d="M 258.226562 359.132812 L 260.835938 437.273438 L 148.808594 437.273438 C 144.503906 430.097656 141.78125 421.890625 141.78125 413.523438 L 141.78125 368.195312 C 141.78125 348.632812 139.664062 329.128906 135.46875 310.015625 L 130.855469 288.992188 L 141.78125 261.109375 L 198.867188 248.882812 L 237.429688 256.585938 C 248.390625 258.769531 257.597656 266.160156 262.105469 276.386719 L 258.226562 359.132812 " fill-opacity="1" fill-rule="nonzero"/><path fill="#d9ecf6" d="M 265.328125 568.933594 L 248.917969 372.128906 C 247.292969 352.664062 243.933594 333.382812 238.878906 314.511719 L 217.542969 252.402344 C 229.089844 254.347656 243.875 257.4375 250.257812 262.035156 L 275.277344 556.558594 C 275.796875 562.675781 271.417969 568.125 265.328125 568.933594 " fill-opacity="1" fill-rule="nonzero"/><path fill="#d9ecf6" d="M 139.292969 563.300781 L 134.300781 557.160156 L 139.269531 419.507812 L 126.488281 307.394531 C 123.695312 278.40625 128.621094 259.144531 165.539062 254.886719 L 183.394531 317.351562 C 188.480469 335.136719 189.984375 353.753906 187.816406 372.125 L 166.199219 555.496094 C 164.625 568.839844 147.773438 573.730469 139.292969 563.300781 " fill-opacity="1" fill-rule="nonzero"/><path fill="#a9adc2" d="M 267.289062 462.527344 L 250.257812 262.035156 C 248.273438 260.605469 245.425781 259.339844 242.171875 258.191406 L 248.097656 358.78125 L 247.730469 360.929688 C 248.171875 364.65625 248.605469 368.386719 248.917969 372.128906 L 256.175781 459.160156 L 266.796875 463.691406 L 267.289062 462.527344 " fill-opacity="1" fill-rule="nonzero"/><path fill="#a9adc2" d="M 184.011719 352.980469 L 154.914062 274.046875 C 152.605469 267.777344 147.023438 263.605469 140.347656 263.152344 C 140.066406 263.132812 139.792969 263.164062 139.511719 263.152344 C 126.296875 272.175781 124.570312 287.492188 126.488281 307.394531 L 133.574219 369.550781 C 140.304688 385.316406 149.589844 400.140625 161.164062 413.242188 L 180.402344 435.027344 L 187.816406 372.125 C 188.261719 368.355469 188.511719 364.574219 188.648438 360.792969 L 184.011719 352.980469 " fill-opacity="1" fill-rule="nonzero"/><path fill="#2f9b96" d="M 231.496094 416.253906 C 220.890625 323.136719 219.183594 331.957031 208.21875 277.890625 L 212.019531 271.660156 L 205.726562 266.796875 L 196.742188 273.53125 L 200.386719 278.210938 C 206.515625 341.023438 202.714844 348.222656 202.03125 416.480469 L 218.710938 432.648438 L 231.496094 416.253906 " fill-opacity="1" fill-rule="nonzero"/><path fill="#ffb746" d="M 172.695312 386.789062 L 276.757812 386.789062 C 283 386.789062 288.238281 391.492188 288.902344 397.695312 L 295.03125 455.027344 C 295.804688 462.238281 290.148438 468.527344 282.890625 468.527344 L 178.832031 468.527344 C 172.585938 468.527344 167.351562 463.824219 166.6875 457.621094 L 160.554688 400.289062 C 159.78125 393.078125 165.4375 386.789062 172.695312 386.789062 " fill-opacity="1" fill-rule="nonzero"/><path fill="#223554" d="M 151.703125 181.25 C 152.757812 177.546875 155.359375 174.65625 158.042969 171.894531 C 158.640625 171.28125 158.980469 170.199219 159.628906 167.871094 L 159.667969 167.734375 C 161.339844 161.804688 166.238281 157.332031 172.304688 156.207031 L 173.613281 155.960938 C 185.449219 153.761719 194.847656 155.382812 204.042969 159 C 208.789062 160.871094 213.472656 161.367188 218.21875 160.535156 C 222.429688 159.789062 226.761719 160.769531 230.125 163.402344 C 238.238281 169.765625 229.851562 180.386719 218.402344 182.375 C 217.542969 192.011719 215.679688 201.320312 213.339844 210.59375 C 211.347656 218.492188 207.464844 227.0625 199.738281 230.765625 C 196.019531 232.554688 190.894531 233.980469 185.554688 234.820312 C 175.019531 236.46875 164.605469 231.125 159.492188 221.769531 L 155.390625 214.269531 C 149.886719 204.207031 148.535156 192.347656 151.703125 181.25 " fill-opacity="1" fill-rule="nonzero"/><path fill="#d9ecf6" d="M 168.15625 255.363281 C 172.820312 269.332031 186.347656 278.460938 187.28125 280.054688 L 205.617188 267.410156 L 215.8125 274.277344 C 218.085938 270.480469 219.78125 266.558594 220.480469 261.890625 C 220.726562 260.253906 220.878906 258.636719 220.949219 257.054688 C 220.882812 256.820312 210.699219 244.339844 210.636719 244.105469 L 198.175781 238.460938 L 174.652344 239.203125 L 168.15625 255.363281 " fill-opacity="1" fill-rule="nonzero"/><path fill="#b45a41" d="M 171.425781 223.832031 C 162.152344 223.535156 154.253906 204.613281 162.75 200.503906 C 166.644531 198.617188 168.027344 202.484375 171.644531 205.449219 L 172.171875 207.90625 C 174.699219 202.863281 179.753906 199.226562 185.847656 198.847656 L 187.683594 198.738281 C 199.171875 198.03125 209.105469 206.675781 209.984375 218.148438 L 211.757812 241.300781 C 212.128906 246.160156 211.574219 251.042969 210.128906 255.695312 L 206.671875 266.796875 L 181.3125 251.277344 C 177.015625 248.648438 174.132812 244.21875 173.46875 239.226562 L 171.425781 223.832031 " fill-opacity="1" fill-rule="nonzero"/><path fill="#b45a41" d="M 173.066406 204.335938 C 175.089844 202.757812 176.027344 200.148438 175.441406 197.648438 C 174.757812 194.746094 174.160156 191.28125 174.167969 189.359375 C 174.183594 185.804688 175.582031 182.542969 177.84375 180.042969 C 188.566406 178.988281 199.386719 179.683594 209.871094 182.160156 C 213.371094 182.984375 216.867188 182.8125 220.070312 182 C 222.429688 191.445312 223.984375 201.085938 224.609375 210.824219 L 225.496094 224.652344 C 226.035156 233.085938 220.3125 240.644531 212.042969 242.417969 C 197.339844 245.578125 182.414062 238.113281 176.121094 224.460938 L 175.347656 222.78125 L 171.644531 205.449219 L 173.066406 204.335938 " fill-opacity="1" fill-rule="nonzero"/><path fill="#b45a41" d="M 248.421875 456.03125 L 236.296875 453.398438 L 224.484375 439.496094 C 218.390625 432.320312 206.851562 435.6875 206.886719 444.695312 C 206.90625 449.378906 208.464844 453.835938 211.261719 458.074219 L 219.5625 470.652344 C 223.871094 477.179688 232.480469 480.007812 240.300781 477.460938 C 245.609375 475.738281 250.230469 472.535156 253.542969 468.289062 C 256.933594 463.933594 254.152344 457.273438 248.421875 456.03125 " fill-opacity="1" fill-rule="nonzero"/><path fill="#b45a41" d="M 223.273438 456.234375 L 235.019531 453.601562 L 244.804688 439.699219 C 249.859375 432.523438 261.890625 435.890625 263.160156 444.894531 C 263.820312 449.578125 262.910156 454.039062 260.730469 458.273438 L 254.257812 470.851562 C 250.898438 477.378906 242.703125 480.207031 234.507812 477.660156 C 228.953125 475.941406 223.863281 472.734375 219.9375 468.488281 C 215.910156 464.136719 217.726562 457.476562 223.273438 456.234375 " fill-opacity="1" fill-rule="nonzero"/><path fill="#d9ecf6" d="M 147.550781 276.761719 L 176.890625 356.367188 L 231.6875 448.621094 L 210.453125 457.199219 L 167.050781 408.054688 C 150.351562 389.144531 138.59375 366.6875 132.914062 342.835938 L 126.539062 316.097656 C 123.230469 302.214844 124.476562 288.628906 131.335938 275.695312 C 134.9375 268.90625 144.894531 269.546875 147.550781 276.761719 " fill-opacity="1" fill-rule="nonzero"/><path fill="#d9ecf6" d="M 250.257812 262.035156 L 255.984375 359.214844 L 241.507812 444.382812 L 262.632812 453.386719 L 287.398438 394.847656 C 293.285156 380.933594 294.398438 365.464844 290.5625 350.855469 L 279.132812 307.332031 C 274.472656 289.59375 264.378906 273.753906 250.257812 262.035156 " fill-opacity="1" fill-rule="nonzero"/><path fill="#a9adc2" d="M 1124.203125 773.46875 C 1123.347656 768.734375 1120.671875 759.175781 1120.832031 748.726562 L 1121.039062 735.007812 L 1095.945312 735.820312 C 1094.515625 741.480469 1101.539062 756.078125 1085.203125 770.480469 C 1096.6875 781.980469 1108.808594 789.097656 1124.203125 773.46875 " fill-opacity="1" fill-rule="nonzero"/><g clip-path="url(#id9)"><path fill="#223554" d="M 1124.210938 773.46875 C 1117.386719 776.84375 1108.710938 779.144531 1101.253906 778.09375 C 1093.9375 777.0625 1093.058594 771.964844 1085.203125 770.480469 C 1084.796875 770.835938 1084.453125 771.191406 1084.023438 771.542969 C 1078.71875 775.894531 1072.449219 778.875 1065.902344 780.90625 C 1053.210938 784.84375 1051.171875 789.320312 1051.171875 794.433594 L 1123.851562 794.433594 C 1126.070312 792.488281 1125.695312 782.867188 1124.34375 774.210938 C 1124.3125 773.996094 1124.25 773.710938 1124.210938 773.46875 " fill-opacity="1" fill-rule="nonzero"/></g><path fill="#223554" d="M 1162.832031 463.9375 C 1165.515625 487.945312 1160.285156 512.609375 1146.136719 532.207031 C 1140.589844 539.894531 1137.171875 549.070312 1136.632812 558.953125 L 1125.476562 762.652344 L 1079.253906 761.609375 L 1084.476562 482.949219 C 1084.40625 477.695312 1085.179688 469.054688 1087.140625 459.75 L 1162.367188 459.75 L 1162.832031 463.9375 " fill-opacity="1" fill-rule="nonzero"/><path fill="#a9adc2" d="M 1164.4375 773.46875 C 1162.96875 768.734375 1159.066406 759.175781 1157.886719 748.726562 L 1156.335938 735.007812 L 1131.351562 735.820312 C 1130.644531 741.484375 1139.535156 756.078125 1125.042969 770.480469 C 1138.011719 781.980469 1151.042969 789.097656 1164.4375 773.46875 " fill-opacity="1" fill-rule="nonzero"/><g clip-path="url(#id10)"><path fill="#334668" d="M 1164.441406 773.46875 C 1158.042969 776.84375 1149.671875 779.144531 1142.078125 778.09375 C 1134.621094 777.0625 1133.089844 771.964844 1125.046875 770.480469 C 1124.695312 770.835938 1124.386719 771.191406 1124.007812 771.542969 C 1119.261719 775.894531 1113.378906 778.875 1107.089844 780.90625 C 1094.902344 784.84375 1093.441406 789.320312 1094.085938 794.433594 L 1166.765625 794.433594 C 1168.738281 792.488281 1167.132812 782.867188 1164.671875 774.210938 C 1164.613281 773.996094 1164.519531 773.710938 1164.441406 773.46875 " fill-opacity="1" fill-rule="nonzero"/></g><path fill="#334668" d="M 1163.371094 463.9375 C 1169.128906 487.945312 1167.058594 512.609375 1155.433594 532.207031 C 1150.863281 539.894531 1148.628906 549.070312 1149.359375 558.953125 L 1164.316406 762.652344 L 1117.964844 761.609375 L 1087.453125 482.949219 C 1086.710938 477.695312 1086.378906 469.054688 1087.136719 459.75 L 1162.371094 459.75 L 1163.371094 463.9375 " fill-opacity="1" fill-rule="nonzero"/><path fill="#f89a82" d="M 1085.246094 225.898438 C 1087.398438 222.910156 1088.371094 219.242188 1087.996094 215.582031 L 1087.574219 211.511719 C 1086.558594 198.921875 1090.34375 186.21875 1098.171875 175.882812 L 1103.277344 169.148438 L 1120.003906 171.292969 C 1142.664062 174.199219 1157.492188 195.402344 1152.558594 217.847656 L 1149.503906 222.929688 C 1149.746094 231.199219 1152.347656 245.839844 1152.570312 254.035156 L 1152.691406 258.6875 L 1118.667969 275.527344 C 1119.097656 269.503906 1119.410156 265.121094 1119.636719 261.910156 C 1120.042969 256.136719 1120.421875 258.734375 1114.824219 260.269531 L 1109.519531 261.726562 C 1102.019531 263.96875 1094.28125 260.167969 1091.773438 253.007812 L 1087.746094 241.539062 L 1084.710938 240.316406 C 1080.828125 238.753906 1079.433594 233.980469 1081.871094 230.589844 L 1085.246094 225.898438 " fill-opacity="1" fill-rule="nonzero"/><path fill="#b45a41" d="M 1146.484375 181.277344 C 1140.59375 174.683594 1132.355469 170.097656 1122.695312 168.855469 L 1095.296875 165.34375 C 1089.570312 164.609375 1084.144531 168.644531 1083.164062 174.351562 C 1082.613281 177.605469 1083.617188 180.863281 1085.898438 183.152344 L 1093.488281 190.785156 C 1095.488281 192.789062 1096.835938 195.339844 1097.398438 198.136719 C 1098.1875 202.144531 1100.609375 205.585938 1104.097656 207.679688 C 1107.140625 209.503906 1108.496094 213.171875 1107.417969 216.644531 L 1105.484375 222.832031 C 1104.867188 224.792969 1106.121094 226.765625 1108.136719 227.023438 C 1109.460938 227.195312 1110.796875 226.5625 1111.539062 225.417969 L 1116.816406 217.175781 C 1119.273438 213.355469 1124.289062 212.058594 1128.09375 214.257812 L 1128.371094 214.417969 C 1131.8125 216.410156 1134.3125 219.660156 1135.359375 223.507812 C 1136.964844 229.4375 1141.960938 233.75 1148.136719 234.542969 L 1151.269531 234.941406 L 1151.277344 234.945312 L 1151.277344 234.941406 L 1161.78125 218.449219 C 1172.410156 201.773438 1165.40625 185.769531 1146.484375 181.277344 " fill-opacity="1" fill-rule="nonzero"/><path fill="#d9ecf6" d="M 1113.183594 279.226562 C 1113.496094 270.917969 1119.238281 263.398438 1127.335938 260.703125 L 1152.929688 252.175781 L 1157.761719 268.027344 L 1113.183594 279.226562 " fill-opacity="1" fill-rule="nonzero"/><g clip-path="url(#id11)"><path fill="#94d9d4" d="M 1091.222656 607.855469 C 1079.273438 601.457031 1072.644531 588.496094 1074.222656 574.609375 L 1078.144531 402.945312 C 1080.730469 380.148438 1081.398438 334.515625 1093.195312 314 L 1113.1875 279.226562 L 1120.21875 275.183594 C 1131.792969 268.523438 1145.097656 265.988281 1157.761719 268.027344 C 1162.792969 284.542969 1166.632812 301.386719 1169.203125 318.542969 C 1173.160156 344.886719 1172.902344 372.402344 1168.308594 400.382812 C 1164.660156 422.558594 1164.390625 445.097656 1167.308594 467.386719 C 1170.9375 495.191406 1172.136719 523.617188 1170.582031 552.804688 L 1168.128906 598.902344 L 1115.816406 610.929688 C 1107.304688 612.882812 1098.570312 611.792969 1091.222656 607.855469 " fill-opacity="1" fill-rule="nonzero"/></g><g clip-path="url(#id12)"><path fill="#2f9b96" d="M 1171.914062 353.582031 L 1169.683594 328.410156 C 1168.226562 311.988281 1161.628906 298.148438 1150.070312 287.277344 C 1140.175781 277.976562 1124.71875 277.90625 1114.863281 287.105469 C 1108.511719 293.042969 1105.613281 301.699219 1107.136719 310.257812 L 1119.292969 379.082031 L 1077.789062 418.488281 L 1076.722656 465.050781 L 1079.445312 467.253906 L 1138.617188 430.832031 C 1157.078125 419.46875 1167.855469 396.988281 1171.199219 375.769531 C 1171.753906 368.320312 1171.984375 360.921875 1171.914062 353.582031 " fill-opacity="1" fill-rule="nonzero"/></g><path fill="#e4595c" d="M 1149.582031 432.394531 L 1076.925781 364.707031 C 1074.269531 362.238281 1070.121094 362.386719 1067.652344 365.035156 L 1022.242188 413.722656 C 1019.769531 416.371094 1019.914062 420.519531 1022.5625 422.988281 L 1095.226562 490.675781 C 1097.875 493.144531 1102.027344 492.996094 1104.5 490.351562 L 1149.910156 441.664062 C 1152.378906 439.015625 1152.234375 434.867188 1149.582031 432.394531 " fill-opacity="1" fill-rule="nonzero"/><path fill="#94d9d4" d="M 1120.222656 292.839844 C 1115.832031 296.941406 1113.8125 302.984375 1114.855469 308.898438 L 1127.75 381.871094 L 1062.699219 443.632812 L 1080.0625 457.660156 L 1134.496094 424.15625 C 1155.4375 411.261719 1166.339844 379.601562 1164.222656 355.796875 L 1161.859375 329.105469 C 1160.621094 315.15625 1155.214844 302.890625 1144.6875 292.992188 C 1137.8125 286.527344 1127.117188 286.394531 1120.222656 292.839844 " fill-opacity="1" fill-rule="nonzero"/><path fill="#f89a82" d="M 1049.929688 461.496094 L 1049.851562 461.394531 C 1045.265625 455.746094 1046.539062 447.378906 1052.585938 443.335938 L 1069.453125 437.476562 L 1085.519531 454.242188 L 1076.808594 462.917969 C 1069.199219 470.5 1056.699219 469.839844 1049.929688 461.496094 " fill-opacity="1" fill-rule="nonzero"/><path fill="#f89a82" d="M 1049.949219 369.734375 C 1053.5 363.265625 1062.417969 361.824219 1067.519531 367.144531 C 1071.0625 370.828125 1073.046875 375.992188 1072.476562 381.53125 L 1072.464844 381.664062 C 1071.726562 388.898438 1064.925781 393.933594 1057.78125 392.539062 L 1049.875 388.734375 C 1045.421875 386.59375 1043.683594 381.160156 1046.058594 376.832031 L 1049.949219 369.734375 " fill-opacity="1" fill-rule="nonzero"/></svg>